<?xml version="1.0" encoding="UTF-8" standalone="no"?>
<svg width="1000" height="796" xmlns="http://www.w3.org/2000/svg">
<title>屋顶展开图</title>
<desc>屋顶各面展开图 - 30度倾斜角</desc>

<!-- 背景 -->
<rect width="100%" height="100%" fill="#f8f8f8"/>

<!-- 展开的屋面 -->
<g id="unfolded-faces" opacity="0.85">
  <polygon points="302.485,293.876 387.438,208.924 217.533,208.924 132.58,293.876 " fill="#e3f2fd" stroke="#666" stroke-width="1.5" />
  <polygon points="321.6,652.801 601.943,397.943 406.552,228.038 321.6,312.991 " fill="#e3f2fd" stroke="#666" stroke-width="1.5" />
  <polygon points="856.801,678.286 601.943,397.943 347.085,678.286 " fill="#e3f2fd" stroke="#666" stroke-width="1.5" />
  <polygon points="882.286,143.085 601.943,397.943 882.286,652.801 " fill="#e3f2fd" stroke="#666" stroke-width="1.5" />
  <polygon points="156.792,117.6 241.744,202.552 411.649,202.552 601.943,397.943 836.412,117.6 " fill="#9e9e9e" stroke="#666" stroke-width="1.5" />
  <polygon points="117.714,287.505 202.666,202.552 117.714,117.6 " fill="#e3f2fd" stroke="#666" stroke-width="1.5" />
</g>

<!-- 面的边缘线 -->
<g id="edge-lines" stroke="#1976d2" stroke-width="2" opacity="0.7">
  <line x1="302.485" y1="293.876" x2="387.438" y2="208.924" />
  <line x1="387.438" y1="208.924" x2="217.533" y2="208.924" />
  <line x1="217.533" y1="208.924" x2="132.58" y2="293.876" />
  <line x1="132.58" y1="293.876" x2="302.485" y2="293.876" />
  <line x1="321.6" y1="652.801" x2="601.943" y2="397.943" />
  <line x1="601.943" y1="397.943" x2="406.552" y2="228.038" />
  <line x1="406.552" y1="228.038" x2="321.6" y2="312.991" />
  <line x1="321.6" y1="312.991" x2="321.6" y2="652.801" />
  <line x1="856.801" y1="678.286" x2="601.943" y2="397.943" />
  <line x1="601.943" y1="397.943" x2="347.085" y2="678.286" />
  <line x1="347.085" y1="678.286" x2="856.801" y2="678.286" />
  <line x1="882.286" y1="143.085" x2="601.943" y2="397.943" />
  <line x1="601.943" y1="397.943" x2="882.286" y2="652.801" />
  <line x1="882.286" y1="652.801" x2="882.286" y2="143.085" />
  <line x1="156.792" y1="117.6" x2="241.744" y2="202.552" />
  <line x1="241.744" y1="202.552" x2="411.649" y2="202.552" />
  <line x1="411.649" y1="202.552" x2="601.943" y2="397.943" />
  <line x1="601.943" y1="397.943" x2="836.412" y2="117.6" />
  <line x1="836.412" y1="117.6" x2="156.792" y2="117.6" />
  <line x1="117.714" y1="287.505" x2="202.666" y2="202.552" />
  <line x1="202.666" y1="202.552" x2="117.714" y2="117.6" />
  <line x1="117.714" y1="117.6" x2="117.714" y2="287.505" />
</g>

</svg>
